<?xml version="1.0" standalone="no"?><svg xmlns:xlink="http://www.w3.org/1999/xlink" xmlns="http://www.w3.org/2000/svg" viewBox="0 0 1700 1081.8181818181818" preserveAspectRatio="xMaxYMax slice"><g transform="scale(2.3415977961432506)"><rect x="0" y="0" width="726" height="462" fill="#ffffff"/><path d="M 66 66 A 66 66 0 0 1  132 0 L 66 66 A 66 66 0 0 0 132 0" fill="#fef3e2"/><path d="M 660 66 A 66 66 0 0 1  726 0 L 660 66 A 66 66 0 0 0 726 0" fill="#fef7ea"/><rect x="396" y="66" width="66" height="66" fill="#ffffff"/><path d="M 396 99 A 33 33 0 0 1  429 66 L 396 99 A 33 33 0 0 0 429 66" fill="#fffefd"/><path d="M 429 99 A 33 33 0 0 1  462 132 L 429 99 A 33 33 0 0 0 462 132" fill="#dbf7dd"/><rect x="198" y="132" width="66" height="66" fill="#ffffff"/><path d="M 462 264 A 66 66 0 0 1  528 198 L 462 264 A 66 66 0 0 0 528 198" fill="#fef5e7"/><path d="M 198 330 A 66 66 0 0 1  264 264 L 198 330 A 66 66 0 0 0 264 264" fill="#fffdfb"/><path d="M 264 264 A 66 66 0 0 1  330 330 L 264 264 A 66 66 0 0 0 330 330" fill="#f1fcf1"/><path d="M 330 330 A 66 66 0 0 1  396 264 L 330 330 A 66 66 0 0 0 396 264" fill="#fef5e5"/><path d="M 330 462 A 66 66 0 0 1  396 396 L 330 462 A 66 66 0 0 0 396 396" fill="#d6f6d8"/><path d="M 660 396 A 66 66 0 0 1  726 462 L 660 396 A 66 66 0 0 0 726 462" fill="#ddf8df"/></g></svg>